Coordinates
version=1
nRows=11
nColumns=36
inDegrees=yes

Units are S.I. units (second, meters, Newtons, ...)
If the header above contains a line with 'inDegrees', this indicates whether rotational values are in degrees (yes) or radians (no).

endheader
time	pelvis_tilt	pelvis_list	pelvis_rotation	pelvis_tx	pelvis_ty	pelvis_tz	hip_flexion_r	hip_adduction_r	hip_rotation_r	knee_angle_r	knee_angle_r_beta	ankle_angle_r	subtalar_angle_r	mtp_angle_r	hip_flexion_l	hip_adduction_l	hip_rotation_l	knee_angle_l	knee_angle_l_beta	ankle_angle_l	subtalar_angle_l	mtp_angle_l	lumbar_extension	lumbar_bending	lumbar_rotation	arm_flex_r	arm_add_r	arm_rot_r	elbow_flex_r	pro_sup_r	arm_flex_l	arm_add_l	arm_rot_l	elbow_flex_l	pro_sup_l
      2.11666670	     10.39424653	      3.43283423	     -2.43476880	      0.68926420	      0.96565951	     -0.04272462	     -0.50570852	      3.18225239	      4.56857471	     25.43789607	      0.44397504	     19.43138812	     -4.34155913	     -7.49996505	     28.14523995	     -7.99701900	     -6.58814816	     27.56105090	      0.48103108	     -1.51789361	     -5.16524017	     -7.49996505	    -13.96004309	      2.40033176	     -7.81647106	     57.49208894	      4.81129673	     72.33903983	    107.69193470	     83.72341895	     52.07376817	    -11.14021117	     50.14937052	    131.21998585	     93.61580914
      2.13333330	     10.20495762	      3.27198939	     -2.44069229	      0.68319006	      0.96445680	     -0.04053843	      0.06161318	      3.39327243	      4.69411709	     26.12889191	      0.45603519	     19.71857646	     -4.23530165	     -7.49996562	     28.93319119	     -8.20687734	     -6.44367266	     27.45583185	      0.47919466	     -1.69206891	     -5.17824768	     -7.49996562	    -13.92495168	      2.56383995	     -7.77951892	     58.15250247	      5.08534636	     72.93112649	    110.06234504	     83.88815015	     52.51713940	    -11.51382272	     49.94159323	    131.26724364	     93.72335271
      2.15000000	     10.06416524	      3.01847134	     -2.40087078	      0.68387078	      0.96387292	     -0.04136085	      0.63092191	      3.75138898	      4.89486544	     26.99010217	      0.47106615	     19.87079788	     -4.47183219	     -7.49996632	     29.64117960	     -8.44107003	     -6.18810965	     27.44469762	      0.47900034	     -1.63465883	     -5.15769448	     -7.49996632	    -13.89052257	      2.87296000	     -7.58334697	     58.19571073	      5.31978937	     73.35391969	    111.69472539	     84.06426307	     52.52084491	    -11.48764673	     49.79162059	    131.33425430	     93.84561210
      2.16666670	      9.94327809	      2.85354347	     -2.47141173	      0.68421637	      0.96274640	     -0.04100313	      1.18784982	      4.01615598	      5.09523876	     27.84086715	      0.48591480	     20.14720082	     -4.66791292	     -7.49996947	     30.50110012	     -8.65747754	     -5.90325429	     28.06408626	      0.48981071	     -1.59921205	     -5.22499403	     -7.49996947	    -13.93008100	      2.96029711	     -7.29725132	     58.00895670	      5.20277573	     73.43238385	    111.18843075	     83.54787447	     52.44138021	    -11.78749222	     50.09395397	    131.59826648	     93.32158049
      2.18333330	      9.69654921	      2.60131582	     -2.49252601	      0.67867088	      0.96121802	     -0.03977581	      2.14782472	      4.41008418	      5.25068266	     28.98834241	      0.50594202	     20.18384519	     -4.87115423	     -7.49997065	     31.61518220	     -8.91134058	     -5.39205518	     28.54788117	      0.49825452	     -1.43496494	     -4.91675876	     -7.49997065	    -14.05403224	      3.14903916	     -7.21314942	     58.20754884	      4.88727366	     73.59214376	    111.00210794	     82.97440001	     52.55724086	    -12.55117219	     50.18149222	    131.91122623	     92.94357012
      2.20000000	      9.72032135	      2.57698290	     -2.53983061	      0.68556570	      0.95828962	     -0.04082741	      2.74667577	      4.53727048	      5.41914898	     30.23744173	      0.52774292	     20.54013285	     -5.07323979	     -7.49997106	     32.05638585	     -8.94529893	     -5.05578324	     28.84253683	      0.50339723	     -1.30755305	     -4.73228479	     -7.49997106	    -14.03670013	      2.99359755	     -7.49039560	     58.06082173	      4.63386952	     73.83982110	    111.98326805	     83.17668525	     52.28078810	    -13.23488430	     49.97426220	    131.71425686	     93.09331257
      2.21666670	      9.43707835	      2.35201314	     -2.51883670	      0.68026120	      0.95436886	     -0.03891375	      4.02219489	      4.90775994	      5.38961979	     31.85351070	      0.55594864	     20.77430881	     -5.23822739	     -7.49997229	     33.23544320	     -9.28964891	     -4.60268241	     29.51493316	      0.51513276	     -1.53655486	     -4.55896942	     -7.49997229	    -13.69232173	      3.13785280	     -7.62379667	     58.29977693	      4.81509472	     73.93785553	    112.77532804	     82.42671669	     52.25686406	    -13.59048703	     49.96056305	    131.76089757	     92.43371759
      2.23333330	      9.34350820	      2.19003928	     -2.46828484	      0.68181082	      0.95448587	     -0.03809162	      4.79855194	      5.18311346	      5.20183833	     33.14275443	      0.57845019	     21.17589611	     -5.23038177	     -7.49997300	     33.86130574	     -9.44087449	     -4.18070450	     29.67993323	      0.51801256	     -1.89050021	     -4.52742713	     -7.49997300	    -13.73121755	      3.30042262	     -7.46429867	     59.21513272	      4.89553618	     75.05969213	    116.10734111	     82.75609441	     52.55431243	    -13.56391713	     50.28798933	    131.89061164	     92.83550690
      2.25000000	      9.44454448	      2.07204871	     -2.40182572	      0.68198542	      0.95346018	     -0.03860748	      5.29013262	      5.33753781	      5.07596921	     34.18147522	      0.59657929	     21.38198198	     -5.23799129	     -7.49997331	     34.16625225	     -9.55262122	     -3.96857346	     29.45802823	      0.51413958	     -2.46196080	     -4.43358816	     -7.49997331	    -14.06353619	      3.41376858	     -6.62110755	     59.91301590	      4.77553280	     73.95354252	    113.13220095	     82.82283017	     53.45041819	    -12.92020079	     50.75764387	    132.14272865	     93.05655448
      2.26666670	      9.53992993	      2.03401466	     -2.43806251	      0.68254162	      0.95000041	     -0.03760974	      5.62880595	      5.45936778	      4.99784367	     35.04397209	      0.61163270	     21.71670538	     -5.15311482	     -7.49997365	     34.56514891	     -9.61461584	     -3.71938512	     29.28776563	      0.51116794	     -2.83149313	     -4.55274261	     -7.49997365	    -14.21778266	      3.37922314	     -6.52205449	     60.01793039	      4.98841868	     73.27905053	    111.66622048	     82.94247009	     53.93693952	    -13.05992778	     51.44210210	    132.22780886	     93.27924244
      2.28333330	      9.66312363	      1.99958177	     -2.42140835	      0.68358247	      0.94616157	     -0.03731062	      5.85798635	      5.57043593	      4.88213770	     35.83438828	      0.62542806	     22.15598640	     -5.14786623	     -7.49997388	     34.99092906	     -9.67141353	     -3.44451721	     29.32322255	      0.51178678	     -3.09437113	     -4.73764753	     -7.49997388	    -14.27923362	      3.37986896	     -6.41772701	     59.66688701	      5.14918697	     72.71406285	    110.84127777	     83.01568384	     54.11271535	    -12.81299890	     51.48917214	    132.47689908	     93.40593038
